<svg width="24" height="40" viewBox="0 0 24 40" fill="none" xmlns="http://www.w3.org/2000/svg">
<mask id="mask0_37_7" style="mask-type:luminance" maskUnits="userSpaceOnUse" x="0" y="0" width="24" height="40">
<path d="M24 0H0V39.3602H24V0Z" fill="white"/>
</mask>
<g mask="url(#mask0_37_7)">
<path d="M19.2502 3.01406H17.2285C17.0193 3.01406 16.8798 3.19564 16.8798 3.37722V3.52248C16.8798 3.7767 16.7753 4.03091 16.6009 4.21248C16.4266 4.39406 16.2174 4.50302 15.9385 4.50302H8.06053C7.81649 4.50302 7.57245 4.39407 7.39813 4.21248C7.22382 4.03091 7.11922 3.7767 7.11922 3.52248V3.41354C7.15408 3.23196 7.01463 3.05038 6.84031 3.01406H4.74879C4.22583 3.01406 3.73801 3.26827 3.35453 3.63143C3.00591 3.99459 2.79672 4.50299 2.79672 5.08377V34.2775C2.79672 34.8223 3.00591 35.3667 3.35453 35.7299C3.73803 36.093 4.22611 36.3109 4.74879 36.3109H19.2493C19.8071 36.3109 20.2949 36.093 20.6435 35.7299V35.6936C20.9922 35.3304 21.2013 34.822 21.2013 34.2775V5.08379C21.2013 4.50273 20.9922 3.99465 20.6435 3.63144C20.2949 3.26829 19.8068 3.01408 19.2493 3.01408L19.2502 3.01406ZM20.0173 0.000469208H3.98302C2.90257 0.000469208 1.8915 0.47258 1.19452 1.1986C0.462395 1.96123 0.044323 2.97774 0.044323 4.10328V35.2212C0.044323 36.383 0.462679 37.3999 1.19452 38.1259C1.89179 38.8886 2.9025 39.3604 3.98302 39.3604H20.0173C21.0977 39.3604 22.1088 38.8883 22.8058 38.1259C23.5379 37.3996 23.9908 36.383 23.9908 35.2212V4.10328C23.9908 2.97781 23.5376 1.96094 22.8058 1.1986L22.7709 1.16228C22.0388 0.435959 21.0977 0.000469208 20.0173 0.000469208ZM3.98302 1.77961H20.0173C20.6448 1.77961 21.1675 1.99751 21.5858 2.39698L21.6207 2.46961C22.039 2.86909 22.2831 3.44984 22.2831 4.10352V35.2215C22.2831 35.8752 22.039 36.4559 21.6207 36.8917C21.2023 37.3275 20.6448 37.5817 20.0173 37.5817H3.98301C3.35547 37.5817 2.79794 37.3275 2.37959 36.8917C1.99609 36.4559 1.71718 35.8752 1.71718 35.2215V4.10352C1.71718 3.44983 1.9961 2.86906 2.37959 2.46961C2.79794 2.03382 3.3555 1.77961 3.98302 1.77961ZM17.543 3.74039H19.251C19.5996 3.74039 19.9483 3.88566 20.1574 4.13987V4.10355C20.4015 4.35776 20.5409 4.72092 20.5409 5.08379V34.2775C20.5409 34.6407 20.4015 34.9675 20.1923 35.2218H20.1574C19.9483 35.476 19.5996 35.6212 19.251 35.6212H4.7505C4.40187 35.6212 4.0881 35.476 3.84405 35.2218C3.6 34.9675 3.46055 34.6407 3.46055 34.2775V5.08379C3.46055 4.72063 3.60001 4.35747 3.84405 4.13957C4.08809 3.88536 4.40186 3.74009 4.7505 3.74009H6.45848C6.5282 4.10325 6.66766 4.43009 6.9117 4.68431C7.22547 5.01115 7.60897 5.19273 8.0619 5.19273H15.9399C16.3931 5.19273 16.7766 5.01115 17.0901 4.72062V4.68431C17.3341 4.4301 17.5085 4.10325 17.5433 3.74009L17.543 3.74039Z" fill="white"/>
</g>
</svg>
