<svg width="8" height="12" viewBox="0 0 8 12" fill="none" xmlns="http://www.w3.org/2000/svg">
<mask id="mask0_37_7" style="mask-type:luminance" maskUnits="userSpaceOnUse" x="0" y="0" width="8" height="12">
<path d="M8 0H-1.19209e-07V12H8V0Z" fill="white"/>
</mask>
<g mask="url(#mask0_37_7)">
<path d="M6.41675 0.918954H5.74282C5.6731 0.918954 5.62661 0.974313 5.62661 1.02967V1.07396C5.62661 1.15146 5.59175 1.22897 5.53364 1.28433C5.47554 1.33968 5.40581 1.3729 5.31284 1.3729H2.68684C2.6055 1.3729 2.52415 1.33969 2.46604 1.28433C2.40794 1.22897 2.37307 1.15146 2.37307 1.07396V1.04075C2.38469 0.985386 2.33821 0.930027 2.2801 0.918954H1.58293C1.40861 0.918954 1.246 0.996457 1.11818 1.10718C1.00197 1.21789 0.93224 1.37289 0.93224 1.54996V10.4505C0.93224 10.6165 1.00197 10.7825 1.11818 10.8932C1.24601 11.004 1.4087 11.0704 1.58293 11.0704H6.41643C6.60237 11.0704 6.76495 11.004 6.88118 10.8932V10.8822C6.99739 10.7715 7.06712 10.6165 7.06712 10.4505V1.54996C7.06712 1.37281 6.99739 1.21791 6.88118 1.10718C6.76497 0.996461 6.60228 0.918958 6.41643 0.918958L6.41675 0.918954ZM6.67242 0.000179291H1.32767C0.967523 0.000179291 0.630498 0.144115 0.398173 0.36546C0.154131 0.597969 0.0147734 0.907879 0.0147734 1.25103V10.7382C0.0147734 11.0924 0.154226 11.4024 0.398173 11.6237C0.630596 11.8563 0.967498 12.0001 1.32767 12.0001H6.67242C7.03257 12.0001 7.3696 11.8562 7.60192 11.6237C7.84597 11.4023 7.99695 11.0924 7.99695 10.7382V1.25103C7.99695 0.907902 7.84587 0.597881 7.60192 0.36546L7.5903 0.354388C7.34626 0.13295 7.03257 0.000179291 6.67242 0.000179291ZM1.32767 0.542598H6.67242C6.8816 0.542598 7.05582 0.60903 7.19527 0.730819L7.20689 0.752963C7.34635 0.874754 7.42769 1.05181 7.42769 1.2511V10.7382C7.42769 10.9375 7.34635 11.1146 7.20689 11.2475C7.06744 11.3803 6.88159 11.4578 6.67242 11.4578H1.32767C1.11849 11.4578 0.932644 11.3803 0.793194 11.2475C0.665362 11.1146 0.572394 10.9375 0.572394 10.7382V1.2511C0.572394 1.05181 0.665364 0.874747 0.793194 0.752963C0.932647 0.620101 1.1185 0.542598 1.32767 0.542598ZM5.84767 1.14039H6.417C6.53321 1.14039 6.64942 1.18468 6.71915 1.26219V1.25111C6.8005 1.32862 6.84698 1.43934 6.84698 1.54996V10.4505C6.84698 10.5612 6.8005 10.6608 6.73077 10.7383H6.71915C6.64942 10.8158 6.53321 10.8601 6.417 10.8601H1.5835C1.46729 10.8601 1.3627 10.8158 1.28135 10.7383C1.2 10.6608 1.15352 10.5612 1.15352 10.4505V1.54996C1.15352 1.43925 1.2 1.32853 1.28135 1.26209C1.3627 1.18459 1.46729 1.1403 1.5835 1.1403H2.15282C2.17607 1.25102 2.22255 1.35067 2.3039 1.42817C2.40849 1.52782 2.53632 1.58318 2.6873 1.58318H5.3133C5.46437 1.58318 5.5922 1.52782 5.6967 1.43924V1.42817C5.77805 1.35067 5.83615 1.25102 5.84777 1.1403L5.84767 1.14039Z" fill="white"/>
</g>
</svg>
